<?xml version="1.0" encoding="UTF-8"?>
<svg xmlns="http://www.w3.org/2000/svg" xml:space="preserve" version="1.1" style="shape-rendering:geometricPrecision; text-rendering:geometricPrecision; image-rendering:optimizeQuality; fill-rule:evenodd; clip-rule:evenodd" viewBox="0 0 650 710">
 <defs>
  <style type="text/css">
    .str0 {stroke:#B1D501;stroke-width:12.23;stroke-linecap:round;stroke-miterlimit:22.9256}
    .fil1 {fill:none;fill-rule:nonzero}
    .fil0 {fill:#C2D347;fill-rule:nonzero}
  </style>
 </defs>
 <g>
  <path class="fil0" d="M124.55 118.38c0,-34.39 -27.88,-62.28 -62.28,-62.28 -34.4,0 -62.28,27.88 -62.28,62.28 0,34.39 27.88,62.28 62.28,62.28 34.39,0 62.28,-27.88 62.28,-62.28z"/>
  <line class="fil1 str0" x1="62.71" y1="118.35" x2="62.71" y2="392.03"/>
  <line class="fil1 str0" x1="62.71" y1="392.03" x2="62.71" y2="665.7"/>
  <line class="fil1 str0" x1="68.72" y1="315.15" x2="542.01" y2="62.56"/>
  <line class="fil1 str0" x1="95.15" y1="346.38" x2="571.75" y2="640.47"/>
  <line class="fil1 str0" x1="302.59" y1="354.57" x2="542.01" y2="62.56"/>
  <line class="fil1 str0" x1="302.59" y1="354.57" x2="571.75" y2="640.47"/>
  <line class="fil1 str0" x1="62.71" y1="609.25" x2="302.59" y2="354.57"/>
  <path class="fil0" d="M125.27 118.35c0,-34.55 -28.01,-62.55 -62.55,-62.55 -34.55,0 -62.55,28 -62.55,62.55 0,34.55 28,62.55 62.55,62.55 34.55,0 62.55,-28.01 62.55,-62.55z"/>
  <path class="fil0" d="M125.27 354.57c0,-34.55 -28.01,-62.55 -62.55,-62.55 -34.55,0 -62.55,28.01 -62.55,62.55 0,34.55 28,62.55 62.55,62.55 34.55,0 62.55,-28 62.55,-62.55z"/>
  <path class="fil0" d="M125.27 609.25c0,-34.55 -28.01,-62.55 -62.55,-62.55 -34.55,0 -62.55,28 -62.55,62.55 0,34.55 28,62.55 62.55,62.55 34.55,0 62.55,-28.01 62.55,-62.55z"/>
  <path class="fil0" d="M365.14 354.57c0,-34.55 -28,-62.55 -62.55,-62.55 -34.55,0 -62.55,28.01 -62.55,62.55 0,34.55 28.01,62.55 62.55,62.55 34.55,0 62.55,-28 62.55,-62.55z"/>
  <path class="fil0" d="M607.5 62.55c0,-34.55 -28,-62.55 -62.55,-62.55 -34.55,0 -62.55,28.01 -62.55,62.55 0,34.55 28.01,62.55 62.55,62.55 34.55,0 62.55,-28 62.55,-62.55z"/>
  <path class="fil0" d="M637.25 637.54c0,-34.55 -28.01,-62.55 -62.55,-62.55 -34.55,0 -62.55,28 -62.55,62.55 0,34.55 28,62.55 62.55,62.55 34.55,0 62.55,-28.01 62.55,-62.55z"/>
 </g>
</svg>