<?xml version="1.0" encoding="UTF-8"?>
<svg xmlns="http://www.w3.org/2000/svg" xml:space="preserve" width="114.846mm" height="28.6295mm" version="1.1" style="shape-rendering:geometricPrecision; text-rendering:geometricPrecision; image-rendering:optimizeQuality; fill-rule:evenodd; clip-rule:evenodd" viewBox="0 0 2808.39 700.09">
 <defs>
  <style type="text/css">
    .str0 {stroke:#B1D501;stroke-width:12.23;stroke-linecap:round;stroke-miterlimit:22.9256}
    .fil1 {fill:none;fill-rule:nonzero}
    .fil2 {fill:#FEFEFE;fill-rule:nonzero}
    .fil3 {fill:#B1D501;fill-rule:nonzero}
    .fil0 {fill:#C2D347;fill-rule:nonzero}
  </style>
 </defs>
 <g id="layer1">
  <g>
   <path class="fil0" d="M124.55 118.38c0,-34.39 -27.88,-62.28 -62.28,-62.28 -34.4,0 -62.28,27.88 -62.28,62.28 0,34.39 27.88,62.28 62.28,62.28 34.39,0 62.28,-27.88 62.28,-62.28z"/>
   <line class="fil1 str0" x1="62.71" y1="118.35" x2="62.71" y2="392.03"/>
   <line class="fil1 str0" x1="62.71" y1="392.03" x2="62.71" y2="665.7"/>
   <line class="fil1 str0" x1="68.72" y1="315.15" x2="542.01" y2="62.56"/>
   <line class="fil1 str0" x1="95.15" y1="346.38" x2="571.75" y2="640.47"/>
   <line class="fil1 str0" x1="302.59" y1="354.57" x2="542.01" y2="62.56"/>
   <line class="fil1 str0" x1="302.59" y1="354.57" x2="571.75" y2="640.47"/>
   <line class="fil1 str0" x1="62.71" y1="609.25" x2="302.59" y2="354.57"/>
   <path class="fil0" d="M125.27 118.35c0,-34.55 -28.01,-62.55 -62.55,-62.55 -34.55,0 -62.55,28 -62.55,62.55 0,34.55 28,62.55 62.55,62.55 34.55,0 62.55,-28.01 62.55,-62.55z"/>
   <path class="fil0" d="M125.27 354.57c0,-34.55 -28.01,-62.55 -62.55,-62.55 -34.55,0 -62.55,28.01 -62.55,62.55 0,34.55 28,62.55 62.55,62.55 34.55,0 62.55,-28 62.55,-62.55z"/>
   <path class="fil0" d="M125.27 609.25c0,-34.55 -28.01,-62.55 -62.55,-62.55 -34.55,0 -62.55,28 -62.55,62.55 0,34.55 28,62.55 62.55,62.55 34.55,0 62.55,-28.01 62.55,-62.55z"/>
   <path class="fil0" d="M365.14 354.57c0,-34.55 -28,-62.55 -62.55,-62.55 -34.55,0 -62.55,28.01 -62.55,62.55 0,34.55 28.01,62.55 62.55,62.55 34.55,0 62.55,-28 62.55,-62.55z"/>
   <path class="fil0" d="M607.5 62.55c0,-34.55 -28,-62.55 -62.55,-62.55 -34.55,0 -62.55,28.01 -62.55,62.55 0,34.55 28.01,62.55 62.55,62.55 34.55,0 62.55,-28 62.55,-62.55z"/>
   <path class="fil0" d="M637.25 637.54c0,-34.55 -28.01,-62.55 -62.55,-62.55 -34.55,0 -62.55,28 -62.55,62.55 0,34.55 28,62.55 62.55,62.55 34.55,0 62.55,-28.01 62.55,-62.55z"/>
  </g>
  <g>
   <path class="fil2" d="M1055.68 495.55l-79.73 0 -99.95 -137.44c-1.13,-1.81 -2.41,-4 -3.85,-6.64 -1.36,-2.64 -2.87,-5.73 -4.53,-9.28l-1.13 0 0 153.36 -62.76 0 0 -316.9 62.76 0 0 147.4 1.13 0c0.9,-1.89 2.04,-4.23 3.55,-6.87 1.43,-2.64 3.24,-5.66 5.28,-9.05l95.27 -131.48 73.55 0 -115.56 150.04 125.97 166.86zm93.99 -28.97l-0.68 0 -0.23 133.07 -61.25 0 -0.23 -335.91 61.71 0 -0.23 36.66 1.13 0c8.83,-14.1 19.61,-24.74 32.44,-31.83 12.82,-7.09 27.46,-10.56 43.75,-10.56 29.8,0.15 52.95,10.49 69.55,31.15 16.52,20.59 24.82,48.58 24.82,83.96 0.15,38.62 -9.35,69.55 -28.51,92.93 -19.16,23.31 -44.58,35 -76.41,35 -14.33,0 -26.93,-2.79 -37.79,-8.52 -10.94,-5.66 -20.29,-14.26 -28.06,-25.95zm-1.58 -94.59l0 22.56c0,16.97 4.83,31 14.48,42.09 9.65,11.16 22.18,16.67 37.72,16.67 17.95,0 31.98,-6.94 42.17,-20.97 10.18,-13.96 15.24,-33.64 15.24,-58.99 0,-21.95 -4.53,-38.7 -13.65,-50.16 -9.13,-11.54 -22.33,-17.2 -39.6,-17.05 -16.67,-0.15 -30.17,5.96 -40.66,18.25 -10.49,12.3 -15.69,28.14 -15.69,47.6zm427.63 24.52l-155.17 0c1.05,19.46 7.09,34.17 18.18,44.13 11.01,9.96 26.33,14.94 45.94,14.94 7.39,0 16.75,-1.89 28.14,-5.58 11.47,-3.62 22.78,-9.51 33.94,-17.65l27.01 36.51c-15.24,11.16 -30.7,19.31 -46.47,24.51 -15.77,5.13 -33.04,7.7 -51.9,7.7 -36.66,0 -65.18,-10.33 -85.54,-31.15 -20.29,-20.75 -30.47,-49.79 -30.47,-87.05 0,-37.11 10.63,-67.21 32.06,-90.29 21.35,-23.08 48.43,-34.55 81.32,-34.55 31.68,0 56.73,9.73 75.21,29.34 18.48,19.61 27.76,47.45 27.76,83.58l0 25.57zm-58.16 -39.98c0,-19.01 -3.85,-32.96 -11.54,-41.86 -7.77,-8.9 -19.08,-13.35 -33.94,-13.35 -13.28,0 -24.67,4.98 -34.17,14.94 -9.51,9.88 -15.32,23.38 -17.58,40.28l97.23 0zm292.61 139.03l-58.76 0 0 -34.25 -0.9 0c-7.77,13.28 -17.5,23.23 -29.12,29.8 -11.69,6.64 -24.97,9.96 -40.06,9.96 -20.74,0 -38.09,-6.19 -52.12,-18.56 -13.96,-12.37 -20.97,-29.42 -20.97,-51.07 0,-21.2 6.94,-38.47 20.89,-51.82 13.88,-13.28 35.23,-21.95 63.97,-25.95l58.76 -7.7 0 -4.68c0,-13.43 -3.85,-23.38 -11.47,-29.95 -7.69,-6.56 -18.25,-9.81 -31.61,-9.81 -10.33,0 -21.2,1.81 -32.59,5.43 -11.47,3.55 -22.78,9.13 -33.95,16.67l-23.46 -36.51c14.78,-9.88 29.8,-17.2 45.19,-21.95 15.46,-4.83 32.13,-7.16 50.09,-7.16 32.59,0 56.73,7.92 72.49,23.84 15.77,15.92 23.61,39.75 23.61,71.59l0 142.12zm-58.31 -94.37l0 -17.65 -46.39 5.96c-13.28,1.89 -23.24,5.66 -29.87,11.39 -6.64,5.66 -9.96,13.5 -9.96,23.53 0,9.73 3.17,17.5 9.51,23.31 6.34,5.81 14.78,8.68 25.19,8.68 15.39,0 27.76,-5.21 37.26,-15.69 9.51,-10.41 14.26,-23.61 14.26,-39.53z"/>
   <path class="fil3" d="M1975.29 495.55l-61.4 0 -0.45 -184.06 -64.8 -0.23 -0.45 -47.52 192.28 0 -0.68 47.75 -64.27 -0.23 -0.23 184.29zm107.12 0l0 -231.81 58.61 0 0 155.55c2.04,-3.55 4.37,-7.39 7.09,-11.69 2.64,-4.3 5.13,-8.15 7.47,-11.69l90.6 -132.16 56.35 0 0 231.81 -58.54 0 0 -155.62c-2.04,3.54 -4.45,7.47 -7.09,11.77 -2.64,4.22 -5.13,8.15 -7.47,11.69l-90.45 132.16 -56.58 0zm348.8 0l-61.7 0 0 -231.81 61.7 0 0 106.97 0.83 0 77.17 -106.97 74.23 0 -90.15 109.61 96.78 122.2 -75.81 0 -82.22 -114.06 -0.83 0 0 114.06zm377.17 0l-58.76 0 0 -34.25 -0.9 0c-7.77,13.28 -17.5,23.23 -29.12,29.8 -11.69,6.64 -24.97,9.96 -40.06,9.96 -20.74,0 -38.09,-6.19 -52.12,-18.56 -13.96,-12.37 -20.97,-29.42 -20.97,-51.07 0,-21.2 6.94,-38.47 20.89,-51.82 13.88,-13.28 35.23,-21.95 63.97,-25.95l58.76 -7.7 0 -4.68c0,-13.43 -3.85,-23.38 -11.47,-29.95 -7.69,-6.56 -18.25,-9.81 -31.61,-9.81 -10.33,0 -21.2,1.81 -32.59,5.43 -11.47,3.55 -22.78,9.13 -33.95,16.67l-23.46 -36.51c14.78,-9.88 29.8,-17.2 45.19,-21.95 15.46,-4.83 32.13,-7.16 50.09,-7.16 32.59,0 56.73,7.92 72.49,23.84 15.77,15.92 23.61,39.75 23.61,71.59l0 142.12zm-58.31 -94.37l0 -17.65 -46.39 5.96c-13.28,1.89 -23.24,5.66 -29.87,11.39 -6.64,5.66 -9.96,13.5 -9.96,23.53 0,9.73 3.17,17.5 9.51,23.31 6.34,5.81 14.78,8.68 25.19,8.68 15.39,0 27.76,-5.21 37.26,-15.69 9.51,-10.41 14.26,-23.61 14.26,-39.53z"/>
  </g>
 </g>
</svg>